<svg id="visual" viewBox="0 0 1000 600" width="1000" height="600" xmlns="http://www.w3.org/2000/svg" xmlns:xlink="http://www.w3.org/1999/xlink" version="1.1"><path d="M0 85L83.3 84C166.7 83 333.3 81 500 78C666.7 75 833.3 71 916.7 69L1000 67L1000 0L916.7 0C833.3 0 666.7 0 500 0C333.3 0 166.7 0 83.3 0L0 0Z" fill="#e4e0d5"></path><path d="M0 277L83.3 274C166.7 271 333.3 265 500 258C666.7 251 833.3 243 916.7 239L1000 235L1000 65L916.7 67C833.3 69 666.7 73 500 76C333.3 79 166.7 81 83.3 82L0 83Z" fill="#e9e5db"></path><path d="M0 391L83.3 388C166.7 385 333.3 379 500 369C666.7 359 833.3 345 916.7 338L1000 331L1000 233L916.7 237C833.3 241 666.7 249 500 256C333.3 263 166.7 269 83.3 272L0 275Z" fill="#eeebe1"></path><path d="M0 517L83.3 517C166.7 517 333.3 517 500 518C666.7 519 833.3 521 916.7 522L1000 523L1000 329L916.7 336C833.3 343 666.7 357 500 367C333.3 377 166.7 383 83.3 386L0 389Z" fill="#f3f0e7"></path><path d="M0 601L83.3 601C166.7 601 333.3 601 500 601C666.7 601 833.3 601 916.7 601L1000 601L1000 521L916.7 520C833.3 519 666.7 517 500 516C333.3 515 166.7 515 83.3 515L0 515Z" fill="#f8f6ee"></path></svg>