<svg id="visual" viewBox="0 0 900 900" width="900" height="900" xmlns="http://www.w3.org/2000/svg" xmlns:xlink="http://www.w3.org/1999/xlink" version="1.1"><rect x="0" y="0" width="900" height="900" fill="#e4e0d5"></rect><defs><linearGradient id="grad1_0" x1="0%" y1="0%" x2="100%" y2="100%"><stop offset="30%" stop-color="#6a360c" stop-opacity="1"></stop><stop offset="70%" stop-color="#6a360c" stop-opacity="1"></stop></linearGradient></defs><defs><linearGradient id="grad1_1" x1="0%" y1="0%" x2="100%" y2="100%"><stop offset="30%" stop-color="#6a360c" stop-opacity="1"></stop><stop offset="70%" stop-color="#7b4e25" stop-opacity="1"></stop></linearGradient></defs><defs><linearGradient id="grad1_2" x1="0%" y1="0%" x2="100%" y2="100%"><stop offset="30%" stop-color="#8b663e" stop-opacity="1"></stop><stop offset="70%" stop-color="#7b4e25" stop-opacity="1"></stop></linearGradient></defs><defs><linearGradient id="grad1_3" x1="0%" y1="0%" x2="100%" y2="100%"><stop offset="30%" stop-color="#8b663e" stop-opacity="1"></stop><stop offset="70%" stop-color="#9c7e59" stop-opacity="1"></stop></linearGradient></defs><defs><linearGradient id="grad1_4" x1="0%" y1="0%" x2="100%" y2="100%"><stop offset="30%" stop-color="#ad9676" stop-opacity="1"></stop><stop offset="70%" stop-color="#9c7e59" stop-opacity="1"></stop></linearGradient></defs><defs><linearGradient id="grad1_5" x1="0%" y1="0%" x2="100%" y2="100%"><stop offset="30%" stop-color="#ad9676" stop-opacity="1"></stop><stop offset="70%" stop-color="#beae94" stop-opacity="1"></stop></linearGradient></defs><defs><linearGradient id="grad1_6" x1="0%" y1="0%" x2="100%" y2="100%"><stop offset="30%" stop-color="#d0c7b4" stop-opacity="1"></stop><stop offset="70%" stop-color="#beae94" stop-opacity="1"></stop></linearGradient></defs><defs><linearGradient id="grad1_7" x1="0%" y1="0%" x2="100%" y2="100%"><stop offset="30%" stop-color="#d0c7b4" stop-opacity="1"></stop><stop offset="70%" stop-color="#e4e0d5" stop-opacity="1"></stop></linearGradient></defs><defs><linearGradient id="grad2_0" x1="0%" y1="0%" x2="100%" y2="100%"><stop offset="30%" stop-color="#6a360c" stop-opacity="1"></stop><stop offset="70%" stop-color="#6a360c" stop-opacity="1"></stop></linearGradient></defs><defs><linearGradient id="grad2_1" x1="0%" y1="0%" x2="100%" y2="100%"><stop offset="30%" stop-color="#7b4e25" stop-opacity="1"></stop><stop offset="70%" stop-color="#6a360c" stop-opacity="1"></stop></linearGradient></defs><defs><linearGradient id="grad2_2" x1="0%" y1="0%" x2="100%" y2="100%"><stop offset="30%" stop-color="#7b4e25" stop-opacity="1"></stop><stop offset="70%" stop-color="#8b663e" stop-opacity="1"></stop></linearGradient></defs><defs><linearGradient id="grad2_3" x1="0%" y1="0%" x2="100%" y2="100%"><stop offset="30%" stop-color="#9c7e59" stop-opacity="1"></stop><stop offset="70%" stop-color="#8b663e" stop-opacity="1"></stop></linearGradient></defs><defs><linearGradient id="grad2_4" x1="0%" y1="0%" x2="100%" y2="100%"><stop offset="30%" stop-color="#9c7e59" stop-opacity="1"></stop><stop offset="70%" stop-color="#ad9676" stop-opacity="1"></stop></linearGradient></defs><defs><linearGradient id="grad2_5" x1="0%" y1="0%" x2="100%" y2="100%"><stop offset="30%" stop-color="#beae94" stop-opacity="1"></stop><stop offset="70%" stop-color="#ad9676" stop-opacity="1"></stop></linearGradient></defs><defs><linearGradient id="grad2_6" x1="0%" y1="0%" x2="100%" y2="100%"><stop offset="30%" stop-color="#beae94" stop-opacity="1"></stop><stop offset="70%" stop-color="#d0c7b4" stop-opacity="1"></stop></linearGradient></defs><defs><linearGradient id="grad2_7" x1="0%" y1="0%" x2="100%" y2="100%"><stop offset="30%" stop-color="#e4e0d5" stop-opacity="1"></stop><stop offset="70%" stop-color="#d0c7b4" stop-opacity="1"></stop></linearGradient></defs><g transform="translate(900, 0)"><path d="M0 254.6C-15.9 219.4 -31.8 184.3 -59 181.7C-86.2 179 -124.6 208.7 -149.6 205.9C-174.6 203.2 -186.2 167.8 -191.7 139.3C-197.3 110.8 -196.9 89.1 -206.4 67.1C-215.9 45 -235.2 22.5 -254.6 0L0 0Z" fill="#dad4c4"></path><path d="M0 222.7C-13.9 192 -27.9 161.3 -51.6 158.9C-75.4 156.6 -109.1 182.6 -130.9 180.2C-152.8 177.8 -162.9 146.8 -167.8 121.9C-172.6 97 -172.3 78 -180.6 58.7C-188.9 39.4 -205.8 19.7 -222.7 0L0 0Z" fill="#c7bba4"></path><path d="M0 190.9C-11.9 164.6 -23.9 138.2 -44.3 136.2C-64.7 134.2 -93.5 156.6 -112.2 154.5C-131 152.4 -139.6 125.9 -143.8 104.5C-148 83.1 -147.7 66.9 -154.8 50.3C-161.9 33.7 -176.4 16.9 -190.9 0L0 0Z" fill="#b5a285"></path><path d="M0 159.1C-10 137.2 -19.9 115.2 -36.9 113.5C-53.9 111.9 -77.9 130.5 -93.5 128.7C-109.1 127 -116.4 104.9 -119.8 87.1C-123.3 69.3 -123.1 55.7 -129 41.9C-134.9 28.1 -147 14.1 -159.1 0L0 0Z" fill="#a48a67"></path><path d="M0 127.3C-8 109.7 -15.9 92.2 -29.5 90.8C-43.1 89.5 -62.3 104.4 -74.8 103C-87.3 101.6 -93.1 83.9 -95.9 69.7C-98.7 55.4 -98.5 44.6 -103.2 33.5C-107.9 22.5 -117.6 11.2 -127.3 0L0 0Z" fill="#94724b"></path><path d="M0 95.5C-6 82.3 -11.9 69.1 -22.1 68.1C-32.3 67.1 -46.7 78.3 -56.1 77.2C-65.5 76.2 -69.8 62.9 -71.9 52.2C-74 41.6 -73.8 33.4 -77.4 25.1C-80.9 16.9 -88.2 8.4 -95.5 0L0 0Z" fill="#835a31"></path><path d="M0 63.6C-4 54.9 -8 46.1 -14.8 45.4C-21.6 44.7 -31.2 52.2 -37.4 51.5C-43.7 50.8 -46.5 42 -47.9 34.8C-49.3 27.7 -49.2 22.3 -51.6 16.8C-54 11.2 -58.8 5.6 -63.6 0L0 0Z" fill="#724218"></path><path d="M0 31.8C-2 27.4 -4 23 -7.4 22.7C-10.8 22.4 -15.6 26.1 -18.7 25.7C-21.8 25.4 -23.3 21 -24 17.4C-24.7 13.9 -24.6 11.1 -25.8 8.4C-27 5.6 -29.4 2.8 -31.8 0L0 0Z" fill="#6a360c"></path></g><g transform="translate(0, 900)"><path d="M0 -254.6C26.3 -248.7 52.6 -242.8 74.5 -229.2C96.4 -215.6 114 -194.3 127 -174.7C140 -155.2 148.4 -137.6 169.9 -123.4C191.4 -109.3 225.8 -98.6 242.1 -78.7C258.4 -58.7 256.5 -29.3 254.6 0L0 0Z" fill="#dad4c4"></path><path d="M0 -222.7C23 -217.6 46 -212.5 65.2 -200.6C84.3 -188.6 99.7 -170 111.1 -152.9C122.5 -135.8 129.9 -120.4 148.7 -108C167.4 -95.6 197.6 -86.3 211.8 -68.8C226.1 -51.3 224.4 -25.7 222.7 0L0 0Z" fill="#c7bba4"></path><path d="M0 -190.9C19.7 -186.5 39.4 -182.1 55.9 -171.9C72.3 -161.7 85.5 -145.7 95.2 -131.1C105 -116.4 111.3 -103.2 127.4 -92.6C143.5 -82 169.4 -74 181.6 -59C193.8 -44 192.4 -22 190.9 0L0 0Z" fill="#b5a285"></path><path d="M0 -159.1C16.4 -155.4 32.8 -151.8 46.5 -143.3C60.2 -134.7 71.2 -121.4 79.4 -109.2C87.5 -97 92.8 -86 106.2 -77.1C119.6 -68.3 141.1 -61.7 151.3 -49.2C161.5 -36.7 160.3 -18.3 159.1 0L0 0Z" fill="#a48a67"></path><path d="M0 -127.3C13.1 -124.3 26.3 -121.4 37.2 -114.6C48.2 -107.8 57 -97.1 63.5 -87.4C70 -77.6 74.2 -68.8 84.9 -61.7C95.7 -54.6 112.9 -49.3 121 -39.3C129.2 -29.3 128.2 -14.7 127.3 0L0 0Z" fill="#94724b"></path><path d="M0 -95.5C9.9 -93.3 19.7 -91.1 27.9 -86C36.1 -80.8 42.7 -72.8 47.6 -65.5C52.5 -58.2 55.7 -51.6 63.7 -46.3C71.8 -41 84.7 -37 90.8 -29.5C96.9 -22 96.2 -11 95.5 0L0 0Z" fill="#835a31"></path><path d="M0 -63.6C6.6 -62.2 13.1 -60.7 18.6 -57.3C24.1 -53.9 28.5 -48.6 31.7 -43.7C35 -38.8 37.1 -34.4 42.5 -30.9C47.8 -27.3 56.5 -24.7 60.5 -19.7C64.6 -14.7 64.1 -7.3 63.6 0L0 0Z" fill="#724218"></path><path d="M0 -31.8C3.3 -31.1 6.6 -30.4 9.3 -28.7C12 -26.9 14.2 -24.3 15.9 -21.8C17.5 -19.4 18.6 -17.2 21.2 -15.4C23.9 -13.7 28.2 -12.3 30.3 -9.8C32.3 -7.3 32.1 -3.7 31.8 0L0 0Z" fill="#6a360c"></path></g></svg>