<svg id="visual" viewBox="0 0 1820 1080" width="1820" height="1080" xmlns="http://www.w3.org/2000/svg" xmlns:xlink="http://www.w3.org/1999/xlink" version="1.1"><path d="M0 368L50.5 377C101 386 202 404 303.2 407.7C404.3 411.3 505.7 400.7 606.8 409.7C708 418.7 809 447.3 910 459.8C1011 472.3 1112 468.7 1213.2 445.3C1314.3 422 1415.7 379 1516.8 364.7C1618 350.3 1719 364.7 1769.5 371.8L1820 379L1820 0L1769.5 0C1719 0 1618 0 1516.8 0C1415.7 0 1314.3 0 1213.2 0C1112 0 1011 0 910 0C809 0 708 0 606.8 0C505.7 0 404.3 0 303.2 0C202 0 101 0 50.5 0L0 0Z" fill="#e4e0d5"></path><path d="M0 811L50.5 811C101 811 202 811 303.2 803.8C404.3 796.7 505.7 782.3 606.8 789.5C708 796.7 809 825.3 910 832.5C1011 839.7 1112 825.3 1213.2 823.5C1314.3 821.7 1415.7 832.3 1516.8 830.5C1618 828.7 1719 814.3 1769.5 807.2L1820 800L1820 377L1769.5 369.8C1719 362.7 1618 348.3 1516.8 362.7C1415.7 377 1314.3 420 1213.2 443.3C1112 466.7 1011 470.3 910 457.8C809 445.3 708 416.7 606.8 407.7C505.7 398.7 404.3 409.3 303.2 405.7C202 402 101 384 50.5 375L0 366Z" fill="#eeebe1"></path><path d="M0 1081L50.5 1081C101 1081 202 1081 303.2 1081C404.3 1081 505.7 1081 606.8 1081C708 1081 809 1081 910 1081C1011 1081 1112 1081 1213.2 1081C1314.3 1081 1415.7 1081 1516.8 1081C1618 1081 1719 1081 1769.5 1081L1820 1081L1820 798L1769.5 805.2C1719 812.3 1618 826.7 1516.8 828.5C1415.7 830.3 1314.3 819.7 1213.2 821.5C1112 823.3 1011 837.7 910 830.5C809 823.3 708 794.7 606.8 787.5C505.7 780.3 404.3 794.7 303.2 801.8C202 809 101 809 50.5 809L0 809Z" fill="#f8f6ee"></path></svg>